<svg width="40" height="40" viewBox="0 0 40 40" fill="none" xmlns="http://www.w3.org/2000/svg">
<path fill-rule="evenodd" clip-rule="evenodd" d="M17.707 24.7074C17.5195 24.8949 17.2652 25.0002 17 25.0002C16.7349 25.0002 16.4806 24.8949 16.293 24.7074L12.293 20.7074C12.1056 20.5199 12.0002 20.2656 12.0002 20.0004C12.0002 19.7352 12.1056 19.4809 12.293 19.2934L16.293 15.2934C16.4816 15.1112 16.7342 15.0105 16.9964 15.0127C17.2586 15.015 17.5094 15.1202 17.6948 15.3056C17.8803 15.491 17.9854 15.7418 17.9877 16.004C17.99 16.2662 17.8892 16.5188 17.707 16.7074L15.414 19.0004H27C27.2652 19.0004 27.5196 19.1058 27.7071 19.2933C27.8947 19.4808 28 19.7352 28 20.0004C28 20.2656 27.8947 20.52 27.7071 20.7075C27.5196 20.8951 27.2652 21.0004 27 21.0004H15.414L17.707 23.2934C17.8945 23.4809 17.9998 23.7352 17.9998 24.0004C17.9998 24.2656 17.8945 24.5199 17.707 24.7074Z" fill="#B1B0B2"/>
<rect x="0.5" y="0.5" width="39" height="39" rx="19.5" stroke="#DFDFDF"/>
</svg>
