<svg
  width="1em"
  height="1em"
  viewBox="0 0 24 24"
  fill="none"
  xmlns="http://www.w3.org/2000/svg"
>
  <path
    d="M10.2761 9.15991C10.4466 9.04661 10.6567 8.94431 10.8998 8.86621V10.734C10.6795 10.665 10.4697 10.5661 10.2761 10.4403C9.8768 10.1741 9.7998 9.92551 9.7998 9.80011C9.7998 9.67471 9.8768 9.42611 10.2761 9.15991ZM13.0998 15.134V13.2662C13.3418 13.3443 13.553 13.4466 13.7235 13.5599C14.1239 13.8272 14.1998 14.0747 14.1998 14.2001C14.1998 14.3255 14.1228 14.5741 13.7235 14.8403C13.5299 14.9661 13.3201 15.065 13.0998 15.134Z"
    fill="currentColor"
  />
  <path
    fill-rule="evenodd"
    clip-rule="evenodd"
    d="M12.0002 20.8002C14.3341 20.8002 16.5724 19.8731 18.2227 18.2227C19.8731 16.5724 20.8002 14.3341 20.8002 12.0002C20.8002 9.66629 19.8731 7.42798 18.2227 5.77766C16.5724 4.12734 14.3341 3.2002 12.0002 3.2002C9.66629 3.2002 7.42798 4.12734 5.77766 5.77766C4.12734 7.42798 3.2002 9.66629 3.2002 12.0002C3.2002 14.3341 4.12734 16.5724 5.77766 18.2227C7.42798 19.8731 9.66629 20.8002 12.0002 20.8002ZM13.1002 6.5002C13.1002 6.20846 12.9843 5.92867 12.778 5.72238C12.5717 5.51609 12.2919 5.4002 12.0002 5.4002C11.7085 5.4002 11.4287 5.51609 11.2224 5.72238C11.0161 5.92867 10.9002 6.20846 10.9002 6.5002V6.6014C10.2431 6.71836 9.61623 6.96598 9.0566 7.3296C8.2624 7.8576 7.6002 8.7101 7.6002 9.8002C7.6002 10.8892 8.2624 11.7417 9.0566 12.2708C9.5846 12.6228 10.216 12.8703 10.9002 12.999V15.1341C10.4701 14.9944 10.1522 14.7854 9.9729 14.5797C9.87984 14.4655 9.76479 14.3712 9.63459 14.3023C9.50438 14.2334 9.36166 14.1914 9.2149 14.1787C9.06814 14.166 8.92032 14.1829 8.78023 14.2284C8.64013 14.274 8.51061 14.3472 8.39933 14.4437C8.28806 14.5402 8.19732 14.6581 8.13248 14.7904C8.06763 14.9227 8.03002 15.0666 8.02186 15.2137C8.01371 15.3608 8.03518 15.508 8.085 15.6466C8.13482 15.7852 8.21198 15.9125 8.3119 16.0207C8.9301 16.7346 9.8662 17.2043 10.9002 17.399V17.5002C10.9002 17.7919 11.0161 18.0717 11.2224 18.278C11.4287 18.4843 11.7085 18.6002 12.0002 18.6002C12.2919 18.6002 12.5717 18.4843 12.778 18.278C12.9843 18.0717 13.1002 17.7919 13.1002 17.5002V17.399C13.7573 17.282 14.3842 17.0344 14.9438 16.6708C15.738 16.1428 16.4002 15.2903 16.4002 14.2002C16.4002 13.1112 15.738 12.2587 14.9438 11.7296C14.3842 11.366 13.7573 11.1184 13.1002 11.0014V8.8663C13.5303 9.006 13.8482 9.215 14.0275 9.4207C14.1214 9.53214 14.2366 9.62381 14.3662 9.69037C14.4959 9.75693 14.6375 9.79707 14.7828 9.80844C14.9281 9.81981 15.0742 9.8022 15.2126 9.75662C15.3511 9.71103 15.4791 9.6384 15.5892 9.54293C15.6993 9.44745 15.7893 9.33105 15.8541 9.20047C15.9188 9.0699 15.957 8.92776 15.9663 8.78231C15.9757 8.63687 15.956 8.49102 15.9085 8.35323C15.861 8.21544 15.7866 8.08847 15.6896 7.9797C15.0703 7.2658 14.1353 6.7961 13.1002 6.6014V6.5002Z"
    fill="currentColor"
  />
</svg>
