<svg
  width="1em"
  height="1em"
  viewBox="0 0 24 24"
  fill="none"
  xmlns="http://www.w3.org/2000/svg"
>
  <path
    d="M6.74038 11.5553C6.7404 11.4547 6.76026 11.355 6.79883 11.2621C6.8374 11.1691 6.89391 11.0847 6.96512 11.0137C7.03633 10.9427 7.12083 10.8865 7.21379 10.8483C7.30674 10.8101 7.4063 10.7907 7.50676 10.7912L8.77734 10.7954C8.97993 10.7954 9.17422 10.876 9.31747 11.0195C9.46073 11.163 9.5412 11.3577 9.5412 11.5607V16.3744C9.68431 16.3319 9.86745 16.2866 10.069 16.2391C10.2086 16.2062 10.333 16.127 10.4221 16.0143C10.5112 15.9017 10.5597 15.7622 10.5597 15.6185V9.64777C10.5597 9.44479 10.6402 9.25012 10.7834 9.10657C10.9267 8.96303 11.1209 8.88236 11.3236 8.88232H12.598C12.8006 8.88236 12.9948 8.96301 13.1381 9.10652C13.2813 9.25003 13.3618 9.44467 13.3618 9.64763V15.1894C13.3618 15.1894 13.6807 15.0602 13.9911 14.9288C14.1064 14.8799 14.2048 14.7981 14.274 14.6936C14.3433 14.589 14.3802 14.4664 14.3803 14.3409V7.73445C14.3803 7.5315 14.4608 7.33687 14.604 7.19335C14.7472 7.04983 14.9415 6.96918 15.144 6.96914H16.4171C16.6196 6.96934 16.8137 7.05006 16.9568 7.19356C17.0999 7.33706 17.1803 7.5316 17.1803 7.73445V13.1748C18.284 12.3734 19.4026 11.4094 20.2903 10.2504C20.4191 10.0821 20.5043 9.88459 20.5383 9.67533C20.5724 9.46607 20.5542 9.25161 20.4854 9.0511C20.0745 7.86669 19.4214 6.78127 18.5677 5.86429C17.7141 4.9473 16.6788 4.21895 15.5281 3.72585C14.3773 3.23274 13.1365 2.98573 11.8851 3.00064C10.6336 3.01554 9.39902 3.29202 8.26032 3.81239C7.12163 4.33277 6.10389 5.08556 5.27225 6.02262C4.44061 6.95967 3.81337 8.06035 3.43068 9.25421C3.04798 10.4481 2.91826 11.7088 3.04981 12.9558C3.18135 14.2028 3.57128 15.4085 4.19462 16.4958C4.30322 16.6834 4.463 16.836 4.65518 16.9358C4.84736 17.0355 5.06396 17.0782 5.27954 17.0589C5.52037 17.0377 5.82022 17.0077 6.17671 16.9658C6.33174 16.9479 6.4748 16.8736 6.5787 16.7569C6.6826 16.6403 6.74009 16.4895 6.74023 16.3331L6.74038 11.5553Z"
    fill="currentColor"
  />
  <path
    d="M6.71338 19.2752C8.05532 20.2533 9.64117 20.8404 11.2955 20.9715C12.9498 21.1026 14.6081 20.7727 16.0868 20.0182C17.5656 19.2637 18.8072 18.1141 19.6743 16.6965C20.5414 15.2789 21.0002 13.6486 20.9999 11.986C20.9999 11.778 20.9902 11.5733 20.9764 11.3691C17.6898 16.2802 11.6213 18.5761 6.71338 19.2752Z"
    fill="currentColor"
  />
</svg>
