<svg
  width="1em"
  height="1em"
  viewBox="0 0 40 40"
  fill="none"
  xmlns="http://www.w3.org/2000/svg"
>
  <g clip-path="url(#clip0_2197_7327)">
    <path
      d="M36.6666 20.0003C36.6666 29.2045 29.2042 36.667 19.9999 36.667C10.7957 36.667 3.33325 29.2045 3.33325 20.0003C3.33325 10.7961 10.7957 3.33362 19.9999 3.33362C29.2061 3.33362 36.6666 10.7961 36.6666 20.0003Z"
      fill="#2081E2"
    />
    <path
      d="M11.5558 20.56L11.6277 20.447L15.9634 13.6644C16.0267 13.5651 16.1757 13.5753 16.2236 13.6832C16.948 15.3065 17.573 17.3254 17.2802 18.5822C17.1552 19.0994 16.8127 19.7997 16.4274 20.447C16.3778 20.5412 16.323 20.6336 16.2647 20.7227C16.2373 20.7638 16.1911 20.7877 16.1414 20.7877H11.6825C11.5626 20.7877 11.4924 20.6576 11.5558 20.56Z"
      fill="white"
    />
    <path
      d="M30.8814 21.8206V22.8943C30.8814 22.9559 30.8437 23.0107 30.7889 23.0347C30.4533 23.1785 29.3043 23.7059 28.8266 24.3703C27.6074 26.0672 26.6759 28.4936 24.5937 28.4936H15.9069C12.8282 28.4936 10.3333 25.9902 10.3333 22.9011V22.8018C10.3333 22.7196 10.4 22.6528 10.4822 22.6528H15.3248C15.4206 22.6528 15.4908 22.7419 15.4823 22.836C15.448 23.1511 15.5063 23.473 15.6552 23.7658C15.9429 24.3498 16.5388 24.7145 17.1826 24.7145H19.5799V22.8429H17.21C17.0885 22.8429 17.0166 22.7025 17.0868 22.6032C17.1124 22.5638 17.1416 22.5227 17.1724 22.4765C17.3967 22.158 17.7169 21.6631 18.0354 21.0997C18.2529 20.7196 18.4635 20.3138 18.633 19.9062C18.6673 19.8326 18.6946 19.7572 18.722 19.6836C18.7683 19.5535 18.8162 19.4319 18.8505 19.3103C18.8847 19.2076 18.9121 19.0997 18.9395 18.9987C19.02 18.6528 19.0542 18.2863 19.0542 17.9062C19.0542 17.7572 19.0474 17.6014 19.0337 17.4524C19.0268 17.2898 19.0063 17.1271 18.9857 16.9644C18.972 16.8206 18.9464 16.6784 18.919 16.5295C18.8847 16.312 18.8368 16.0963 18.782 15.8788L18.7631 15.7966C18.722 15.6476 18.6878 15.5055 18.6399 15.3565C18.5046 14.889 18.3488 14.4336 18.1844 14.0072C18.1244 13.8377 18.0559 13.675 17.9874 13.5123C17.8864 13.2675 17.7837 13.0449 17.6895 12.8342C17.6416 12.7383 17.6005 12.651 17.5594 12.562C17.5131 12.4609 17.4652 12.3599 17.4172 12.264C17.383 12.1904 17.3436 12.1219 17.3162 12.0534L17.0234 11.5123C16.9823 11.4387 17.0508 11.3513 17.1313 11.3736L18.9635 11.8702H18.9686C18.972 11.8702 18.9738 11.8719 18.9755 11.8719L19.2169 11.9387L19.4823 12.014L19.5799 12.0414V10.9524C19.5799 10.4267 20.0012 10.0003 20.5217 10.0003C20.782 10.0003 21.0183 10.1065 21.1878 10.2794C21.3573 10.4524 21.4635 10.6887 21.4635 10.9524V12.5688L21.6587 12.6236C21.6741 12.6288 21.6895 12.6356 21.7032 12.6459C21.7512 12.6818 21.8197 12.7349 21.907 12.8C21.9755 12.8548 22.0491 12.9216 22.1382 12.9901C22.3145 13.1322 22.5252 13.3154 22.7563 13.526C22.818 13.5791 22.8779 13.6339 22.9327 13.6887C23.2307 13.9661 23.5646 14.2914 23.8831 14.651C23.9721 14.7521 24.0594 14.8548 24.1485 14.9627C24.2375 15.0723 24.3317 15.1801 24.4139 15.288C24.5218 15.4319 24.6382 15.5808 24.7392 15.7367C24.7872 15.8103 24.842 15.8856 24.8882 15.9593C25.0183 16.1562 25.1331 16.36 25.2427 16.5637C25.2889 16.6579 25.3368 16.7606 25.3779 16.8617C25.4995 17.1339 25.5954 17.4113 25.657 17.6887C25.6759 17.7487 25.6896 17.8137 25.6964 17.872V17.8857C25.717 17.9678 25.7238 18.0552 25.7307 18.1442C25.7581 18.4285 25.7444 18.7127 25.6827 18.9987C25.657 19.1203 25.6228 19.235 25.5817 19.3566C25.5406 19.473 25.4995 19.5946 25.4464 19.7093C25.3437 19.9473 25.2221 20.1853 25.0783 20.4079C25.032 20.4901 24.9772 20.5775 24.9224 20.6597C24.8625 20.747 24.8009 20.8292 24.7461 20.9097C24.6707 21.0124 24.5903 21.1203 24.5081 21.2162C24.4344 21.3172 24.3591 21.4182 24.2769 21.5073C24.1622 21.6425 24.0526 21.771 23.9378 21.8943C23.8694 21.9747 23.7957 22.0569 23.7204 22.1306C23.6468 22.2127 23.5714 22.2864 23.5029 22.3549C23.3882 22.4696 23.2923 22.5586 23.2118 22.6323L23.0235 22.8052C22.9961 22.8292 22.9601 22.8429 22.9224 22.8429H21.4635V24.7145H23.2991C23.7101 24.7145 24.1005 24.5689 24.4156 24.3018C24.5235 24.2076 24.9944 23.8001 25.5509 23.1854C25.5697 23.1648 25.5937 23.1494 25.6211 23.1426L30.6913 21.6768C30.7855 21.6494 30.8814 21.7213 30.8814 21.8206Z"
      fill="white"
    />
  </g>
  <defs>
    <clipPath id="clip0_2197_7327">
      <rect
        width="33.3333"
        height="33.3333"
        fill="white"
        transform="translate(3.33325 3.33331)"
      />
    </clipPath>
  </defs>
</svg>
