<svg
  width="1em"
  height="1em"
  viewBox="0 0 24 24"
  fill="none"
  xmlns="http://www.w3.org/2000/svg"
>
  <path
    d="M19.9525 8.73421C19.9647 8.89695 19.9647 9.05969 19.9647 9.22393C19.9647 14.2284 15.8371 20 8.28966 20V19.997C6.06013 20 3.8769 19.4105 2 18.2991C2.32419 18.3351 2.65001 18.3531 2.97664 18.3539C4.82429 18.3554 6.61913 17.7831 8.07272 16.7295C6.31688 16.6987 4.77717 15.642 4.23928 14.0994C4.85436 14.2089 5.48812 14.1864 6.09181 14.0341C4.17753 13.6771 2.80033 12.1247 2.80033 10.3219C2.80033 10.3054 2.80033 10.2896 2.80033 10.2739C3.37071 10.5671 4.00934 10.7298 4.6626 10.7478C2.85964 9.63565 2.30388 7.42179 3.39265 5.6909C5.47593 8.057 8.54966 9.49541 11.8493 9.64765C11.5186 8.33224 11.9703 6.95382 13.0364 6.02913C14.689 4.59522 17.2882 4.66872 18.8418 6.19337C19.7607 6.02613 20.6415 5.7149 21.4475 5.27393C21.1412 6.15062 20.5001 6.89533 19.6437 7.36855C20.457 7.28005 21.2517 7.07907 22 6.77234C21.4491 7.53429 20.7552 8.198 19.9525 8.73421Z"
    fill="currentColor"
  />
</svg>
